<?xml version="1.0" encoding="UTF-8" standalone="no"?>
<!-- Created with Inkscape (http://www.inkscape.org/) -->

<svg
   xmlns:dc="http://purl.org/dc/elements/1.1/"
   xmlns:cc="http://creativecommons.org/ns#"
   xmlns:rdf="http://www.w3.org/1999/02/22-rdf-syntax-ns#"
   xmlns:svg="http://www.w3.org/2000/svg"
   xmlns="http://www.w3.org/2000/svg"
   xmlns:sodipodi="http://sodipodi.sourceforge.net/DTD/sodipodi-0.dtd"
   xmlns:inkscape="http://www.inkscape.org/namespaces/inkscape"
   width="199.43761mm"
   height="137.914mm"
   viewBox="0 0 199.43761 137.914"
   version="1.1"
   id="svg16"
   inkscape:version="0.92.3 (unknown)"
   sodipodi:docname="rmd-to-md.svg">
  <defs
     id="defs10">
    <marker
       inkscape:isstock="true"
       style="overflow:visible"
       id="marker5940"
       refX="0"
       refY="0"
       orient="auto"
       inkscape:stockid="Arrow1Mend">
      <path
         transform="matrix(-0.4,0,0,-0.4,-4,0)"
         style="fill:#000000;fill-opacity:1;fill-rule:evenodd;stroke:#000000;stroke-width:1.00000003pt;stroke-opacity:1"
         d="M 0,0 5,-5 -12.5,0 5,5 Z"
         id="path5938"
         inkscape:connector-curvature="0" />
    </marker>
    <marker
       inkscape:stockid="Arrow1Lend"
       orient="auto"
       refY="0"
       refX="0"
       id="marker5870"
       style="overflow:visible"
       inkscape:isstock="true">
      <path
         inkscape:connector-curvature="0"
         id="path5868"
         d="M 0,0 5,-5 -12.5,0 5,5 Z"
         style="fill:#000000;fill-opacity:1;fill-rule:evenodd;stroke:#000000;stroke-width:1.00000003pt;stroke-opacity:1"
         transform="matrix(-0.8,0,0,-0.8,-10,0)" />
    </marker>
    <marker
       inkscape:isstock="true"
       style="overflow:visible"
       id="marker5660"
       refX="0"
       refY="0"
       orient="auto"
       inkscape:stockid="Arrow1Lend"
       inkscape:collect="always">
      <path
         transform="matrix(-0.8,0,0,-0.8,-10,0)"
         style="fill:#000000;fill-opacity:1;fill-rule:evenodd;stroke:#000000;stroke-width:1.00000003pt;stroke-opacity:1"
         d="M 0,0 5,-5 -12.5,0 5,5 Z"
         id="path5658"
         inkscape:connector-curvature="0" />
    </marker>
    <marker
       inkscape:isstock="true"
       style="overflow:visible"
       id="marker5602"
       refX="0"
       refY="0"
       orient="auto"
       inkscape:stockid="Arrow1Lend">
      <path
         transform="matrix(-0.8,0,0,-0.8,-10,0)"
         style="fill:#800000;fill-opacity:1;fill-rule:evenodd;stroke:#800000;stroke-width:1.00000003pt;stroke-opacity:1"
         d="M 0,0 5,-5 -12.5,0 5,5 Z"
         id="path5600"
         inkscape:connector-curvature="0" />
    </marker>
    <marker
       inkscape:stockid="Arrow1Mend"
       orient="auto"
       refY="0"
       refX="0"
       id="Arrow1Mend"
       style="overflow:visible"
       inkscape:isstock="true"
       inkscape:collect="always">
      <path
         id="path4736"
         d="M 0,0 5,-5 -12.5,0 5,5 Z"
         style="fill:#000000;fill-opacity:1;fill-rule:evenodd;stroke:#000000;stroke-width:1.00000003pt;stroke-opacity:1"
         transform="matrix(-0.4,0,0,-0.4,-4,0)"
         inkscape:connector-curvature="0" />
    </marker>
    <marker
       inkscape:isstock="true"
       style="overflow:visible"
       id="marker5029"
       refX="0"
       refY="0"
       orient="auto"
       inkscape:stockid="Arrow1Lend">
      <path
         transform="matrix(-0.8,0,0,-0.8,-10,0)"
         style="fill:#500000;fill-opacity:1;fill-rule:evenodd;stroke:#500000;stroke-width:1.00000003pt;stroke-opacity:1"
         d="M 0,0 5,-5 -12.5,0 5,5 Z"
         id="path5027"
         inkscape:connector-curvature="0" />
    </marker>
    <marker
       inkscape:stockid="Arrow1Lend"
       orient="auto"
       refY="0"
       refX="0"
       id="Arrow1Lend"
       style="overflow:visible"
       inkscape:isstock="true"
       inkscape:collect="always">
      <path
         id="path4730"
         d="M 0,0 5,-5 -12.5,0 5,5 Z"
         style="fill:#500000;fill-opacity:1;fill-rule:evenodd;stroke:#500000;stroke-width:1.00000003pt;stroke-opacity:1"
         transform="matrix(-0.8,0,0,-0.8,-10,0)"
         inkscape:connector-curvature="0" />
    </marker>
    <marker
       inkscape:stockid="Arrow1Lend"
       orient="auto"
       refY="0"
       refX="0"
       id="Arrow1Lend-9"
       style="overflow:visible"
       inkscape:isstock="true"
       inkscape:collect="always">
      <path
         inkscape:connector-curvature="0"
         id="path4730-0"
         d="M 0,0 5,-5 -12.5,0 5,5 Z"
         style="fill:#500000;fill-opacity:1;fill-rule:evenodd;stroke:#500000;stroke-width:1.00000003pt;stroke-opacity:1"
         transform="matrix(-0.8,0,0,-0.8,-10,0)" />
    </marker>
    <marker
       inkscape:stockid="Arrow1Lend"
       orient="auto"
       refY="0"
       refX="0"
       id="Arrow1Lend-9-9"
       style="overflow:visible"
       inkscape:isstock="true"
       inkscape:collect="always">
      <path
         inkscape:connector-curvature="0"
         id="path4730-0-8"
         d="M 0,0 5,-5 -12.5,0 5,5 Z"
         style="fill:#800000;fill-opacity:1;fill-rule:evenodd;stroke:#800000;stroke-width:1.00000003pt;stroke-opacity:1"
         transform="matrix(-0.8,0,0,-0.8,-10,0)" />
    </marker>
  </defs>
  <sodipodi:namedview
     id="base"
     pagecolor="#ffffff"
     bordercolor="#666666"
     borderopacity="1.0"
     inkscape:pageopacity="0.0"
     inkscape:pageshadow="2"
     inkscape:zoom="1.4"
     inkscape:cx="481.2209"
     inkscape:cy="254.56741"
     inkscape:document-units="mm"
     inkscape:current-layer="layer1"
     showgrid="true"
     inkscape:window-width="1920"
     inkscape:window-height="1026"
     inkscape:window-x="0"
     inkscape:window-y="25"
     inkscape:window-maximized="1"
     fit-margin-top="0"
     fit-margin-left="0"
     fit-margin-right="0"
     fit-margin-bottom="0">
    <inkscape:grid
       type="xygrid"
       id="grid18"
       originx="-15.375001"
       originy="-52.416661" />
  </sodipodi:namedview>
  <metadata
     id="metadata13">
    <rdf:RDF>
      <cc:Work
         rdf:about="">
        <dc:format>image/svg+xml</dc:format>
        <dc:type
           rdf:resource="http://purl.org/dc/dcmitype/StillImage" />
        <dc:title></dc:title>
      </cc:Work>
    </rdf:RDF>
  </metadata>
  <g
     inkscape:label="Layer 1"
     inkscape:groupmode="layer"
     id="layer1"
     transform="translate(-15.375,-106.66934)">
    <text
       xml:space="preserve"
       style="font-style:normal;font-variant:normal;font-weight:normal;font-stretch:normal;font-size:7.05555534px;line-height:100%;font-family:'Asana Math';-inkscape-font-specification:'Asana Math';text-align:start;letter-spacing:0px;word-spacing:0px;writing-mode:lr-tb;text-anchor:start;fill:#000000;fill-opacity:1;stroke:none;stroke-width:0.26458332px;stroke-linecap:butt;stroke-linejoin:miter;stroke-opacity:1"
       x="29.104166"
       y="111.79167"
       id="text3758"><tspan
         sodipodi:role="line"
         id="tspan3756"
         x="29.104166"
         y="111.79167"
         style="stroke-width:0.26458332px">report.Rmd</tspan></text>
    <rect
       style="opacity:0.89594703;fill:none;fill-opacity:1;stroke:#008080;stroke-width:1;stroke-linejoin:round;stroke-miterlimit:4;stroke-dasharray:none;stroke-opacity:1"
       id="rect3779"
       width="68.791664"
       height="121.70833"
       x="15.875"
       y="122.37501"
       inkscape:export-xdpi="300"
       inkscape:export-ydpi="300" />
    <path
       style="fill:none;fill-opacity:0.75;fill-rule:evenodd;stroke:#008080;stroke-width:1;stroke-linecap:butt;stroke-linejoin:miter;stroke-miterlimit:4;stroke-dasharray:none;stroke-opacity:1"
       d="M 15.875,143.54167 H 84.666669"
       id="path4586"
       inkscape:connector-curvature="0" />
    <text
       xml:space="preserve"
       style="font-style:normal;font-variant:normal;font-weight:normal;font-stretch:normal;font-size:7.05555534px;line-height:100%;font-family:'Asana Math';-inkscape-font-specification:'Asana Math';text-align:start;letter-spacing:0px;word-spacing:0px;writing-mode:lr-tb;text-anchor:start;fill:#000000;fill-opacity:1;stroke:none;stroke-width:0.26458332px;stroke-linecap:butt;stroke-linejoin:miter;stroke-opacity:1"
       x="31.75"
       y="132.95834"
       id="text4590"><tspan
         sodipodi:role="line"
         id="tspan4588"
         x="31.75"
         y="132.95834"
         style="stroke-width:0.26458332px">Header</tspan></text>
    <text
       xml:space="preserve"
       style="font-style:normal;font-variant:normal;font-weight:normal;font-stretch:normal;font-size:7.05555534px;line-height:100%;font-family:'Asana Math';-inkscape-font-specification:'Asana Math';text-align:start;letter-spacing:0px;word-spacing:0px;writing-mode:lr-tb;text-anchor:start;fill:#000000;fill-opacity:1;stroke:none;stroke-width:0.26458332px;stroke-linecap:butt;stroke-linejoin:miter;stroke-opacity:1"
       x="26.45833"
       y="154.125"
       id="text4594"><tspan
         sodipodi:role="line"
         id="tspan4592"
         x="26.45833"
         y="154.125"
         style="stroke-width:0.26458332px">Text 1</tspan></text>
    <text
       xml:space="preserve"
       style="font-style:normal;font-variant:normal;font-weight:normal;font-stretch:normal;font-size:7.05555534px;line-height:100%;font-family:'Asana Math';-inkscape-font-specification:'Asana Math, Normal';font-variant-ligatures:normal;font-variant-caps:normal;font-variant-numeric:normal;font-feature-settings:normal;text-align:start;letter-spacing:0px;word-spacing:0px;writing-mode:lr-tb;text-anchor:start;fill:#800000;fill-opacity:1;stroke:#800000;stroke-width:0.26458332px;stroke-linecap:butt;stroke-linejoin:miter;stroke-opacity:1"
       x="28.575001"
       y="165.76666"
       id="text4598"><tspan
         sodipodi:role="line"
         id="tspan4671"
         x="28.575001"
         y="165.76666">Code 1</tspan></text>
    <text
       xml:space="preserve"
       style="font-style:normal;font-variant:normal;font-weight:normal;font-stretch:normal;font-size:4.93888903px;line-height:100%;font-family:'Asana Math';-inkscape-font-specification:'Asana Math';text-align:start;letter-spacing:0px;word-spacing:0px;writing-mode:lr-tb;text-anchor:start;fill:#800000;fill-opacity:1;stroke:#800000;stroke-width:0.26458332px;stroke-linecap:butt;stroke-linejoin:miter;stroke-opacity:1"
       x="28.575001"
       y="171.05832"
       id="text4602"><tspan
         sodipodi:role="line"
         id="tspan4600"
         x="28.575001"
         y="171.05832"
         style="font-size:4.93888903px;fill:#800000;stroke:#800000;stroke-width:0.26458332px">data.frame(...)</tspan></text>
    <rect
       style="opacity:0.89594703;fill:none;fill-opacity:1;stroke:#800000;stroke-width:0.5;stroke-linejoin:round;stroke-miterlimit:4;stroke-dasharray:none;stroke-opacity:1"
       id="rect4604"
       width="42.333332"
       height="15.875"
       x="26.458332"
       y="159.41667" />
    <text
       xml:space="preserve"
       style="font-style:normal;font-variant:normal;font-weight:normal;font-stretch:normal;font-size:7.05555534px;line-height:100%;font-family:'Asana Math';-inkscape-font-specification:'Asana Math';text-align:start;letter-spacing:0px;word-spacing:0px;writing-mode:lr-tb;text-anchor:start;fill:#000000;fill-opacity:1;stroke:none;stroke-width:0.26458332px;stroke-linecap:butt;stroke-linejoin:miter;stroke-opacity:1"
       x="68.791664"
       y="159.41667"
       id="text4612"><tspan
         sodipodi:role="line"
         id="tspan4610"
         x="68.791664"
         y="159.41667"
         style="stroke-width:0.26458332px">`</tspan></text>
    <text
       xml:space="preserve"
       style="font-style:normal;font-variant:normal;font-weight:normal;font-stretch:normal;font-size:7.05555534px;line-height:100%;font-family:'Asana Math';-inkscape-font-specification:'Asana Math, Normal';font-variant-ligatures:normal;font-variant-caps:normal;font-variant-numeric:normal;font-feature-settings:normal;text-align:start;letter-spacing:0px;word-spacing:0px;writing-mode:lr-tb;text-anchor:start;fill:#000000;fill-opacity:1;stroke:none;stroke-width:0.26458332px;stroke-linecap:butt;stroke-linejoin:miter;stroke-opacity:1"
       x="26.45833"
       y="184.8167"
       id="text4594-8"><tspan
         sodipodi:role="line"
         id="tspan4677"
         x="26.45833"
         y="184.8167">Text 2</tspan></text>
    <text
       xml:space="preserve"
       style="font-style:normal;font-variant:normal;font-weight:normal;font-stretch:normal;font-size:7.05555534px;line-height:100%;font-family:'Asana Math';-inkscape-font-specification:'Asana Math, Normal';font-variant-ligatures:normal;font-variant-caps:normal;font-variant-numeric:normal;font-feature-settings:normal;text-align:start;letter-spacing:0px;word-spacing:0px;writing-mode:lr-tb;text-anchor:start;fill:#800000;fill-opacity:1;stroke:#800000;stroke-width:0.26458332px;stroke-linecap:butt;stroke-linejoin:miter;stroke-opacity:1"
       x="28.839581"
       y="195.13547"
       id="text4598-6"><tspan
         sodipodi:role="line"
         id="tspan4673"
         x="28.839581"
         y="195.13547">Code 2</tspan></text>
    <text
       xml:space="preserve"
       style="font-style:normal;font-variant:normal;font-weight:normal;font-stretch:normal;font-size:4.93888903px;line-height:100%;font-family:'Asana Math';-inkscape-font-specification:'Asana Math, Normal';font-variant-ligatures:normal;font-variant-caps:normal;font-variant-numeric:normal;font-feature-settings:normal;text-align:start;letter-spacing:0px;word-spacing:0px;writing-mode:lr-tb;text-anchor:start;fill:#800000;fill-opacity:1;stroke:#800000;stroke-width:0.26458332px;stroke-linecap:butt;stroke-linejoin:miter;stroke-opacity:1"
       x="28.839581"
       y="200.42712"
       id="text4602-7"><tspan
         sodipodi:role="line"
         id="tspan4675"
         x="28.839581"
         y="200.42712">hist(...)</tspan></text>
    <rect
       style="opacity:0.89594703;fill:none;fill-opacity:1;stroke:#800000;stroke-width:0.5;stroke-linejoin:round;stroke-miterlimit:4;stroke-dasharray:none;stroke-opacity:1"
       id="rect4604-1"
       width="42.333332"
       height="15.875"
       x="26.72291"
       y="188.78548" />
    <text
       xml:space="preserve"
       style="font-style:normal;font-variant:normal;font-weight:normal;font-stretch:normal;font-size:7.05555534px;line-height:100%;font-family:'Asana Math';-inkscape-font-specification:'Asana Math, Normal';font-variant-ligatures:normal;font-variant-caps:normal;font-variant-numeric:normal;font-feature-settings:normal;text-align:start;letter-spacing:0px;word-spacing:0px;writing-mode:lr-tb;text-anchor:start;fill:#000000;fill-opacity:1;stroke:none;stroke-width:0.26458332px;stroke-linecap:butt;stroke-linejoin:miter;stroke-opacity:1"
       x="26.45833"
       y="214.71466"
       id="text4594-8-0"><tspan
         sodipodi:role="line"
         id="tspan4697"
         x="26.45833"
         y="214.71466">Text 3</tspan></text>
    <path
       style="fill:none;fill-opacity:0.75;fill-rule:evenodd;stroke:#008080;stroke-width:1;stroke-linecap:butt;stroke-linejoin:miter;stroke-miterlimit:4;stroke-dasharray:none;stroke-opacity:1"
       d="m 145.52091,143.54169 h 68.7917 l -1.1e-4,100.54165 h -68.79167 z"
       id="path4586-7"
       inkscape:connector-curvature="0"
       sodipodi:nodetypes="ccccc" />
    <path
       style="fill:none;fill-opacity:0.75;fill-rule:evenodd;stroke:#500000;stroke-width:0.26499999;stroke-linecap:butt;stroke-linejoin:miter;stroke-miterlimit:4;stroke-dasharray:none;stroke-opacity:1;marker-end:url(#Arrow1Lend)"
       d="M 71.437499,167.35417 H 103.1875"
       id="path4723"
       inkscape:connector-curvature="0" />
    <path
       style="fill:none;fill-opacity:0.75;fill-rule:evenodd;stroke:#500000;stroke-width:0.26458332px;stroke-linecap:butt;stroke-linejoin:miter;stroke-opacity:1;marker-end:url(#marker5029)"
       d="M 71.437499,196.45834 H 103.1875"
       id="path4725"
       inkscape:connector-curvature="0" />
    <text
       xml:space="preserve"
       style="font-style:normal;font-variant:normal;font-weight:normal;font-stretch:normal;font-size:4.93888903px;line-height:100%;font-family:'Asana Math';-inkscape-font-specification:'Asana Math, Normal';font-variant-ligatures:normal;font-variant-caps:normal;font-variant-numeric:normal;font-feature-settings:normal;text-align:start;letter-spacing:0px;word-spacing:0px;writing-mode:lr-tb;text-anchor:start;fill:#800000;fill-opacity:1;stroke:#800000;stroke-width:0.26458332px;stroke-linecap:butt;stroke-linejoin:miter;stroke-opacity:1"
       x="105.83334"
       y="168.41249"
       id="text4602-76"><tspan
         sodipodi:role="line"
         id="tspan5073"
         x="105.83334"
         y="168.41249">compute</tspan></text>
    <text
       xml:space="preserve"
       style="font-style:normal;font-variant:normal;font-weight:normal;font-stretch:normal;font-size:4.93888903px;line-height:100%;font-family:'Asana Math';-inkscape-font-specification:'Asana Math, Normal';font-variant-ligatures:normal;font-variant-caps:normal;font-variant-numeric:normal;font-feature-settings:normal;text-align:start;letter-spacing:0px;word-spacing:0px;writing-mode:lr-tb;text-anchor:start;fill:#800000;fill-opacity:1;stroke:#800000;stroke-width:0.26458332px;stroke-linecap:butt;stroke-linejoin:miter;stroke-opacity:1"
       x="105.83337"
       y="197.51672"
       id="text4602-76-1"><tspan
         style="stroke-width:0.26458332px"
         sodipodi:role="line"
         id="tspan5073-1"
         x="105.83337"
         y="197.51672">compute</tspan></text>
    <path
       style="fill:none;fill-opacity:0.75;fill-rule:evenodd;stroke:#500000;stroke-width:0.26499999;stroke-linecap:butt;stroke-linejoin:miter;stroke-miterlimit:4;stroke-dasharray:none;stroke-opacity:1;marker-end:url(#Arrow1Lend-9)"
       d="m 129.64581,167.35417 h 31.75"
       id="path4723-8"
       inkscape:connector-curvature="0" />
    <path
       style="fill:none;fill-opacity:0.75;fill-rule:evenodd;stroke:#500000;stroke-width:0.26499999;stroke-linecap:butt;stroke-linejoin:miter;stroke-miterlimit:4;stroke-dasharray:none;stroke-opacity:1;marker-end:url(#Arrow1Lend-9-9)"
       d="m 129.64583,196.45834 h 31.75"
       id="path4723-8-8"
       inkscape:connector-curvature="0" />
    <text
       xml:space="preserve"
       style="font-style:normal;font-variant:normal;font-weight:normal;font-stretch:normal;font-size:7.05555534px;line-height:100%;font-family:'Asana Math';-inkscape-font-specification:'Asana Math';text-align:start;letter-spacing:0px;word-spacing:0px;writing-mode:lr-tb;text-anchor:start;fill:#000000;fill-opacity:1;stroke:none;stroke-width:0.26458332px;stroke-linecap:butt;stroke-linejoin:miter;stroke-opacity:1"
       x="165.36461"
       y="153.8605"
       id="text4594-0"><tspan
         sodipodi:role="line"
         id="tspan4592-3"
         x="165.36461"
         y="153.8605"
         style="stroke-width:0.26458332px">Text 1</tspan></text>
    <text
       xml:space="preserve"
       style="font-style:normal;font-variant:normal;font-weight:normal;font-stretch:normal;font-size:7.05555534px;line-height:100%;font-family:'Asana Math';-inkscape-font-specification:'Asana Math, Normal';font-variant-ligatures:normal;font-variant-caps:normal;font-variant-numeric:normal;font-feature-settings:normal;text-align:start;letter-spacing:0px;word-spacing:0px;writing-mode:lr-tb;text-anchor:start;fill:#000000;fill-opacity:1;stroke:none;stroke-width:0.26458332px;stroke-linecap:butt;stroke-linejoin:miter;stroke-opacity:1"
       x="165.36461"
       y="185.08136"
       id="text4594-8-7"><tspan
         style="stroke-width:0.26458332px"
         y="185.08136"
         x="165.36461"
         sodipodi:role="line"
         id="tspan4677-0">Text 2</tspan></text>
    <text
       xml:space="preserve"
       style="font-style:normal;font-variant:normal;font-weight:normal;font-stretch:normal;font-size:7.05555534px;line-height:100%;font-family:'Asana Math';-inkscape-font-specification:'Asana Math, Normal';font-variant-ligatures:normal;font-variant-caps:normal;font-variant-numeric:normal;font-feature-settings:normal;text-align:start;letter-spacing:0px;word-spacing:0px;writing-mode:lr-tb;text-anchor:start;fill:#000000;fill-opacity:1;stroke:none;stroke-width:0.26458332px;stroke-linecap:butt;stroke-linejoin:miter;stroke-opacity:1"
       x="165.36461"
       y="214.97934"
       id="text4594-8-0-6"><tspan
         style="stroke-width:0.26458332px"
         y="214.97934"
         x="165.36461"
         sodipodi:role="line"
         id="tspan4697-9">Text 3</tspan></text>
    <text
       xml:space="preserve"
       style="font-style:normal;font-variant:normal;font-weight:normal;font-stretch:normal;font-size:4.58611107px;line-height:100%;font-family:'Asana Math';-inkscape-font-specification:'Asana Math, Normal';font-variant-ligatures:normal;font-variant-caps:normal;font-variant-numeric:normal;font-feature-settings:normal;text-align:start;letter-spacing:0px;word-spacing:0px;writing-mode:lr-tb;text-anchor:start;fill:#800000;fill-opacity:1;stroke:#800000;stroke-width:0.26458332px;stroke-linecap:butt;stroke-linejoin:miter;stroke-opacity:1"
       x="166.31616"
       y="162.33511"
       id="text5435"><tspan
         sodipodi:role="line"
         id="tspan5433"
         x="166.31616"
         y="162.33511"
         style="font-style:normal;font-variant:normal;font-weight:normal;font-stretch:normal;font-size:4.58611107px;font-family:'Asana Math';-inkscape-font-specification:'Asana Math, Normal';font-variant-ligatures:normal;font-variant-caps:normal;font-variant-numeric:normal;font-feature-settings:normal;text-align:start;writing-mode:lr-tb;text-anchor:start;fill:#800000;fill-opacity:1;stroke:#800000;stroke-width:0.26458332px;stroke-opacity:1">Table 1</tspan></text>
    <path
       style="fill:#800000;fill-opacity:1;fill-rule:evenodd;stroke:#800000;stroke-width:0.26458332px;stroke-linecap:butt;stroke-linejoin:miter;stroke-opacity:1"
       d="m 166.4229,164.17919 h 17.19792"
       id="path5439"
       inkscape:connector-curvature="0" />
    <path
       style="fill:#800000;fill-opacity:1;fill-rule:evenodd;stroke:#800000;stroke-width:0.26458332px;stroke-linecap:butt;stroke-linejoin:miter;stroke-opacity:1"
       d="m 166.4229,174.76252 h 17.19792"
       id="path5439-2"
       inkscape:connector-curvature="0" />
    <path
       style="fill:#800000;fill-opacity:1;fill-rule:evenodd;stroke:#800000;stroke-width:0.26458332px;stroke-linecap:butt;stroke-linejoin:miter;stroke-opacity:1"
       d="m 166.4229,166.82502 h 17.19792"
       id="path5439-1"
       inkscape:connector-curvature="0" />
    <text
       xml:space="preserve"
       style="font-style:normal;font-variant:normal;font-weight:normal;font-stretch:normal;font-size:4.93888855px;line-height:100%;font-family:'Asana Math';-inkscape-font-specification:'Asana Math';text-align:start;letter-spacing:0px;word-spacing:0px;writing-mode:lr-tb;text-anchor:start;fill:#800000;fill-opacity:1;stroke:#800000;stroke-width:0.26458332px;stroke-linecap:butt;stroke-linejoin:miter;stroke-opacity:1"
       x="166.89345"
       y="168.2681"
       id="text5464"><tspan
         sodipodi:role="line"
         id="tspan5462"
         x="166.89345"
         y="168.2681"
         style="fill:#800000;fill-opacity:1;stroke:#800000;stroke-width:0.26458332px;stroke-opacity:1">.   .   .   . </tspan></text>
    <text
       xml:space="preserve"
       style="font-style:normal;font-variant:normal;font-weight:normal;font-stretch:normal;font-size:4.93888855px;line-height:100%;font-family:'Asana Math';-inkscape-font-specification:'Asana Math';text-align:start;letter-spacing:0px;word-spacing:0px;writing-mode:lr-tb;text-anchor:start;fill:#800000;fill-opacity:1;stroke:#800000;stroke-width:0.26458332px;stroke-linecap:butt;stroke-linejoin:miter;stroke-opacity:1"
       x="166.89345"
       y="171.33632"
       id="text5464-7"><tspan
         sodipodi:role="line"
         id="tspan5462-7"
         x="166.89345"
         y="171.33632"
         style="fill:#800000;fill-opacity:1;stroke:#800000;stroke-width:0.26458332px;stroke-opacity:1">.   .   .   . </tspan></text>
    <text
       xml:space="preserve"
       style="font-style:normal;font-variant:normal;font-weight:normal;font-stretch:normal;font-size:4.93888855px;line-height:100%;font-family:'Asana Math';-inkscape-font-specification:'Asana Math';text-align:start;letter-spacing:0px;word-spacing:0px;writing-mode:lr-tb;text-anchor:start;fill:#800000;fill-opacity:1;stroke:#800000;stroke-width:0.26458332px;stroke-linecap:butt;stroke-linejoin:miter;stroke-opacity:1"
       x="166.89345"
       y="173.16699"
       id="text5464-9"><tspan
         sodipodi:role="line"
         id="tspan5462-76"
         x="166.89345"
         y="173.16699"
         style="fill:#800000;fill-opacity:1;stroke:#800000;stroke-width:0.26458332px;stroke-opacity:1">.   .   .   . </tspan></text>
    <text
       xml:space="preserve"
       style="font-style:normal;font-variant:normal;font-weight:normal;font-stretch:normal;font-size:4.93888855px;line-height:100%;font-family:'Asana Math';-inkscape-font-specification:'Asana Math';text-align:start;letter-spacing:0px;word-spacing:0px;writing-mode:lr-tb;text-anchor:start;fill:#800000;fill-opacity:1;stroke:#800000;stroke-width:0.26458332px;stroke-linecap:butt;stroke-linejoin:miter;stroke-opacity:1"
       x="166.89345"
       y="165.58197"
       id="text5464-2"><tspan
         sodipodi:role="line"
         id="tspan5462-71"
         x="166.89345"
         y="165.58197"
         style="fill:#800000;fill-opacity:1;stroke:#800000;stroke-width:0.26458332px;stroke-opacity:1">.   .   .   . </tspan></text>
    <text
       xml:space="preserve"
       style="font-style:normal;font-variant:normal;font-weight:normal;font-stretch:normal;font-size:4.93888855px;line-height:100%;font-family:'Asana Math';-inkscape-font-specification:'Asana Math';text-align:start;letter-spacing:0px;word-spacing:0px;writing-mode:lr-tb;text-anchor:start;fill:#800000;fill-opacity:1;stroke:#800000;stroke-width:0.26458332px;stroke-linecap:butt;stroke-linejoin:miter;stroke-opacity:1"
       x="166.89345"
       y="169.74876"
       id="text5464-7-5"><tspan
         sodipodi:role="line"
         id="tspan5462-7-8"
         x="166.89345"
         y="169.74876"
         style="fill:#800000;fill-opacity:1;stroke:#800000;stroke-width:0.26458332px;stroke-opacity:1">.   .   .   . </tspan></text>
    <text
       xml:space="preserve"
       style="font-style:normal;font-variant:normal;font-weight:normal;font-stretch:normal;font-size:4.58611107px;line-height:100%;font-family:'Asana Math';-inkscape-font-specification:'Asana Math, Normal';font-variant-ligatures:normal;font-variant-caps:normal;font-variant-numeric:normal;font-feature-settings:normal;text-align:start;letter-spacing:0px;word-spacing:0px;writing-mode:lr-tb;text-anchor:start;fill:#800000;fill-opacity:1;stroke:#800000;stroke-width:0.26458332px;stroke-linecap:butt;stroke-linejoin:miter;stroke-opacity:1"
       x="166.84525"
       y="193.02679"
       id="text5435-4"><tspan
         sodipodi:role="line"
         id="tspan5536"
         x="166.84525"
         y="193.02679">Figure 1</tspan></text>
    <path
       style="fill:none;fill-opacity:0.75;fill-rule:evenodd;stroke:#800000;stroke-width:0.26458332px;stroke-linecap:butt;stroke-linejoin:miter;stroke-opacity:1;marker-end:url(#marker5660)"
       d="M 166.6875,207.04167 V 195.13542"
       id="path5538"
       inkscape:connector-curvature="0" />
    <path
       style="fill:none;fill-opacity:0.75;fill-rule:evenodd;stroke:#800000;stroke-width:0.26499999;stroke-linecap:butt;stroke-linejoin:miter;stroke-miterlimit:4;stroke-dasharray:none;stroke-opacity:1;marker-end:url(#Arrow1Mend)"
       d="m 166.6875,207.04167 h 18.52083"
       id="path5540"
       inkscape:connector-curvature="0" />
    <path
       style="fill:none;fill-opacity:0.75;fill-rule:evenodd;stroke:#800000;stroke-width:0.26458332px;stroke-linecap:butt;stroke-linejoin:miter;stroke-opacity:1"
       d="m 167.21667,205.18958 c 0.23623,-0.0945 0.47047,-0.19414 0.7087,-0.28348 0.0245,-0.009 0.15496,0 0.18899,0 0.0315,0 0.12599,0 0.0945,0 -0.0315,0 -0.126,0 -0.0945,0 0.25199,0 0.50397,0 0.75595,0 0.11025,0 0.22049,0 0.33073,0 0.0472,0 0.0959,0.0115 0.14175,0 0.0342,-0.009 0.063,-0.0315 0.0945,-0.0472 0.063,-0.0315 0.12599,-0.063 0.18899,-0.0945 0.0315,-0.0157 0.0611,-0.0361 0.0945,-0.0472 0.0149,-0.005 0.0332,0.007 0.0473,0 0.0199,-0.01 0.0273,-0.0373 0.0472,-0.0472 0.0282,-0.0141 0.0663,0.0141 0.0945,0 0.0199,-0.01 0.0273,-0.0373 0.0472,-0.0472 0.0141,-0.007 0.0323,0.005 0.0472,0 0.0334,-0.0111 0.0611,-0.0361 0.0945,-0.0473 0.0299,-0.01 0.0646,0.01 0.0945,0 0.0334,-0.0111 0.063,-0.0315 0.0945,-0.0472 0.063,-0.0315 0.13039,-0.0554 0.18899,-0.0945 0.0185,-0.0124 0.0287,-0.0349 0.0472,-0.0472 0.0293,-0.0195 0.0652,-0.0277 0.0945,-0.0472 0.0371,-0.0247 0.0522,-0.0804 0.0945,-0.0945 0.0299,-0.01 0.063,0 0.0945,0 0.0157,0 0.0402,0.0141 0.0473,0 0.0141,-0.0282 -0.01,-0.0646 0,-0.0945 0.0313,-0.094 0.0441,-0.022 0.0945,-0.0472 0.0419,-0.0209 0.0987,-0.11307 0.14174,-0.14174 0.0293,-0.0195 0.0652,-0.0277 0.0945,-0.0472 0.0545,-0.0363 0.0872,-0.10539 0.14174,-0.14174 0.0131,-0.009 0.0361,0.0111 0.0472,0 0.0575,-0.0575 0.0221,-0.10556 0.0945,-0.14174 0.0141,-0.007 0.0361,0.0111 0.0472,0 0.0111,-0.0111 -0.007,-0.0332 0,-0.0472 0.01,-0.0199 0.0315,-0.0315 0.0472,-0.0472 0.0157,-0.0157 0.0273,-0.0373 0.0472,-0.0472 0.0141,-0.007 0.0361,0.0111 0.0472,0 0.0249,-0.0249 0.0277,-0.0652 0.0473,-0.0945 0.0247,-0.0371 0.063,-0.063 0.0945,-0.0945 0.0472,-0.0472 0.0945,-0.0945 0.14174,-0.14174 0.0157,-0.0157 0.0287,-0.0349 0.0472,-0.0472 0.0293,-0.0195 0.0696,-0.0224 0.0945,-0.0472 0.0249,-0.0249 0.0277,-0.0652 0.0472,-0.0945 0.0123,-0.0185 0.0373,-0.0273 0.0472,-0.0472 0.007,-0.0141 -0.0111,-0.0361 0,-0.0472 0.0111,-0.0111 0.0315,0 0.0472,0 0.0157,-0.0157 0.0349,-0.0287 0.0472,-0.0472 0.0195,-0.0293 0.0277,-0.0652 0.0472,-0.0945 0.0123,-0.0185 0.0373,-0.0273 0.0472,-0.0472 0.007,-0.0141 -0.007,-0.0332 0,-0.0473 0.01,-0.0199 0.0349,-0.0287 0.0472,-0.0472 0.0195,-0.0293 0.0277,-0.0652 0.0472,-0.0945 0.0123,-0.0185 0.0373,-0.0273 0.0472,-0.0472 0.007,-0.0141 -0.007,-0.0332 0,-0.0472 0.01,-0.0199 0.0373,-0.0273 0.0472,-0.0473 0.007,-0.0141 -0.007,-0.0332 0,-0.0472 0.0983,-0.19664 -0.003,0.0505 0.0945,-0.0472 0.0249,-0.0249 0.0277,-0.0652 0.0472,-0.0945 0.0124,-0.0185 0.0373,-0.0273 0.0472,-0.0472 0.007,-0.0141 -0.007,-0.0332 0,-0.0472 0.10811,-0.21623 -0.0196,0.20049 0.0945,-0.14174 0.01,-0.0299 -0.0141,-0.0663 0,-0.0945 0.01,-0.0199 0.0402,-0.0261 0.0472,-0.0472 0.01,-0.0299 -0.01,-0.0646 0,-0.0945 0.0141,-0.0423 0.0698,-0.0574 0.0945,-0.0945 0.0195,-0.0293 0.0277,-0.0652 0.0472,-0.0945 0.0124,-0.0185 0.0373,-0.0273 0.0472,-0.0472 0.007,-0.0141 -0.007,-0.0332 0,-0.0473 0.01,-0.0199 0.0349,-0.0287 0.0472,-0.0472 0.0195,-0.0293 0.0315,-0.063 0.0472,-0.0945 0.0157,-0.0315 0.0387,-0.0603 0.0472,-0.0945 0.008,-0.0306 -0.008,-0.0639 0,-0.0945 0.0343,-0.13703 0.0369,-0.0553 0.0945,-0.14174 0.0582,-0.0872 0.0836,-0.19626 0.14174,-0.28348 0.0123,-0.0185 0.0373,-0.0273 0.0472,-0.0473 0.007,-0.0141 -0.005,-0.0323 0,-0.0472 0.11408,-0.34222 -0.0136,0.0745 0.0945,-0.14174 0.0141,-0.0282 -0.0141,-0.0663 0,-0.0945 0.0199,-0.0398 0.0746,-0.0546 0.0945,-0.0945 0.007,-0.0141 -0.007,-0.0332 0,-0.0472 0.01,-0.0199 0.0373,-0.0273 0.0473,-0.0472 0.0141,-0.0282 -0.0141,-0.0663 0,-0.0945 0.01,-0.0199 0.0373,-0.0273 0.0472,-0.0472 0.007,-0.0141 -0.0111,-0.0361 0,-0.0472 0.0111,-0.0111 0.0361,0.0111 0.0472,0 0.01,-0.01 -0.009,-0.12301 0,-0.14174 0.01,-0.0199 0.0402,-0.0261 0.0473,-0.0472 0.01,-0.0299 -0.01,-0.0646 0,-0.0945 0.007,-0.0211 0.0373,-0.0273 0.0472,-0.0472 0.007,-0.0141 -0.007,-0.0332 0,-0.0472 0.01,-0.0199 0.0373,-0.0273 0.0472,-0.0472 0.0141,-0.0282 -0.0141,-0.0663 0,-0.0945 0.01,-0.0199 0.0402,-0.0261 0.0473,-0.0473 0.01,-0.0299 -0.01,-0.0646 0,-0.0945 0.007,-0.0211 0.0373,-0.0273 0.0472,-0.0473 0.007,-0.0141 0,-0.0315 0,-0.0472 0.0157,-0.0315 0.0277,-0.0652 0.0472,-0.0945 0.0124,-0.0185 0.0402,-0.0261 0.0473,-0.0472 0.01,-0.0299 -0.008,-0.0639 0,-0.0945 0.009,-0.0342 0.0361,-0.0611 0.0472,-0.0945 0.005,-0.0149 -0.005,-0.0323 0,-0.0473 0.11407,-0.34223 -0.0136,0.0745 0.0945,-0.14174 0.007,-0.0141 -0.0111,-0.0361 0,-0.0472 0.0111,-0.0111 0.0361,0.0111 0.0472,0 0.0111,-0.0111 -0.007,-0.0332 0,-0.0472 0.01,-0.0199 0.0373,-0.0273 0.0472,-0.0473 0.0141,-0.0282 -0.0141,-0.0663 0,-0.0945 0.072,-0.14408 0.0375,0.0864 0.0945,-0.14174 0.008,-0.0306 -0.01,-0.0646 0,-0.0945 0.007,-0.0211 0.0349,-0.0287 0.0472,-0.0472 0.0195,-0.0293 0.0277,-0.0652 0.0472,-0.0945 0.0124,-0.0185 0.0373,-0.0273 0.0472,-0.0472 0.0141,-0.0282 -0.0223,-0.0722 0,-0.0945 0.0111,-0.0111 0.0361,0.0111 0.0473,0 0.0223,-0.0223 -0.0141,-0.0663 0,-0.0945 0.01,-0.0199 0.0373,-0.0273 0.0472,-0.0472 0.007,-0.0141 0,-0.0315 0,-0.0473 0.0157,-0.0315 0.0277,-0.0652 0.0472,-0.0945 0.0124,-0.0186 0.0402,-0.0261 0.0473,-0.0473 0.01,-0.0299 -0.01,-0.0646 0,-0.0945 0.007,-0.0211 0.0349,-0.0287 0.0472,-0.0473 0.0195,-0.0293 0.0277,-0.0652 0.0472,-0.0945 0.0124,-0.0185 0.0373,-0.0273 0.0473,-0.0473 0.007,-0.0141 -0.007,-0.0332 0,-0.0472 0.01,-0.0199 0.0373,-0.0273 0.0472,-0.0472 0.007,-0.0141 -0.0111,-0.0361 0,-0.0473 0.0111,-0.0111 0.0361,0.0111 0.0472,0 0.0111,-0.0111 -0.007,-0.0332 0,-0.0472 0.01,-0.0199 0.0315,-0.0315 0.0473,-0.0472 0.0157,-0.0158 0.0273,-0.0373 0.0472,-0.0473 0.0141,-0.007 0.0402,0.0141 0.0472,0 0.0141,-0.0282 -0.0141,-0.0663 0,-0.0945 0.007,-0.0141 0.0332,0.007 0.0473,0 0.0398,-0.0199 0.0546,-0.0746 0.0945,-0.0945 0.0141,-0.007 0.0332,0.007 0.0472,0 0.0199,-0.01 0.0315,-0.0315 0.0472,-0.0472 0,-0.0157 -0.0141,-0.0402 0,-0.0472 0.0282,-0.0141 0.0663,0.0141 0.0945,0 0.0141,-0.007 -0.0111,-0.0361 0,-0.0472 0.0575,-0.0575 0.10556,-0.0221 0.14175,-0.0945 0.0326,-0.0652 -0.0572,-0.0423 0.0472,-0.0945 0.0282,-0.0141 0.0722,0.0223 0.0945,0 0.0111,-0.0111 -0.0111,-0.0361 0,-0.0472 0.0111,-0.0111 0.0315,0 0.0472,0 0.11025,0 0.22049,0 0.33073,0 0.0157,0 0.0315,0 0.0472,0 0.0157,0 0.0361,-0.0111 0.0472,0 0.0111,0.0111 -0.0111,0.0361 0,0.0472 0.0111,0.0111 0.0361,-0.0111 0.0472,0 0.0111,0.0111 -0.0111,0.0361 0,0.0473 0.0111,0.0111 0.0361,-0.0111 0.0472,0 0.0111,0.0111 -0.0111,0.0361 0,0.0472 0.0111,0.0111 0.0361,-0.0111 0.0472,0 0.0111,0.0111 -0.0111,0.0361 0,0.0472 0.0111,0.0111 0.0361,-0.0111 0.0472,0 0.0111,0.0111 -0.007,0.0332 0,0.0473 0.0252,0.0504 0.0693,0.0441 0.0945,0.0945 0.007,0.0141 -0.0111,0.0361 0,0.0472 0.0111,0.0111 0.0361,-0.0111 0.0473,0 0.0111,0.0111 -0.0111,0.0361 0,0.0472 0.0111,0.0111 0.0361,-0.0111 0.0472,0 0.0223,0.0223 -0.0223,0.0722 0,0.0945 0.0111,0.0111 0.0361,-0.0111 0.0472,0 0.002,0.002 0,0.17164 0,0.18899 0,0.0335 -0.006,0.27127 0,0.28348 0.01,0.0199 0.0373,0.0273 0.0473,0.0473 0.007,0.0141 0,0.0315 0,0.0472 0,0.0788 0,0.1575 0,0.23624 0,0.0157 0,0.0315 0,0.0472 0,0.0157 -0.007,0.0332 0,0.0472 0.01,0.0199 0.0373,0.0273 0.0472,0.0472 0.0163,0.0326 -0.0166,0.21965 0,0.23624 0.0111,0.0111 0.0361,-0.0111 0.0472,0 0.0236,0.0236 -0.0236,0.11811 0,0.14174 0.0111,0.0111 0.0361,-0.0111 0.0473,0 0.0166,0.0166 -0.0163,0.2036 0,0.23623 0.01,0.0199 0.0373,0.0273 0.0472,0.0473 0.0143,0.0287 -0.0143,0.25479 0,0.28348 0.01,0.0199 0.0373,0.0273 0.0472,0.0472 0.0139,0.0279 -0.0108,0.10924 0,0.14174 0.0111,0.0334 0.0387,0.0603 0.0472,0.0945 0.008,0.0306 -0.01,0.0646 0,0.0945 0.007,0.0211 0.0402,0.0261 0.0472,0.0473 0,0.21508 -0.0223,0.003 0.0472,0.14174 0.0189,0.0378 -0.0189,0.10394 0,0.14174 0.01,0.0199 0.0373,0.0273 0.0472,0.0472 0.007,0.0141 0,0.0315 0,0.0472 0,0.0315 -0.01,0.0646 0,0.0945 0.007,0.0211 0.0402,0.0261 0.0472,0.0472 0,0.21508 -0.0223,0.003 0.0472,0.14174 0.0156,0.0311 -0.0146,0.23979 0,0.28348 0.0141,0.0423 0.0746,0.0547 0.0945,0.0945 0.0141,0.0282 -0.01,0.0646 0,0.0945 0.0111,0.0334 0.0315,0.063 0.0473,0.0945 0.0157,0.0315 0.0277,0.0652 0.0472,0.0945 0.0124,0.0185 0.0402,0.0261 0.0472,0.0473 0.01,0.0299 -0.008,0.0639 0,0.0945 0.0171,0.0683 0.0722,0.12217 0.0945,0.18899 0.005,0.0149 -0.005,0.0323 0,0.0472 0.0111,0.0334 0.0361,0.0611 0.0472,0.0945 0.005,0.0149 -0.007,0.0332 0,0.0472 0.01,0.0199 0.0402,0.0261 0.0473,0.0473 0.01,0.0299 -0.0141,0.0663 0,0.0945 0.007,0.0141 0.0361,-0.0111 0.0472,0 0.0111,0.0111 -0.005,0.0323 0,0.0473 0.11408,0.34223 -0.0136,-0.0745 0.0945,0.14174 0.007,0.0141 -0.007,0.0332 0,0.0472 0.01,0.0199 0.0373,0.0273 0.0472,0.0472 0.007,0.0141 -0.007,0.0332 0,0.0473 0.01,0.0199 0.0373,0.0273 0.0472,0.0472 0.009,0.0187 -0.01,0.13208 0,0.14174 0.0111,0.0111 0.0361,-0.0111 0.0473,0 0.0111,0.0111 -0.007,0.0332 0,0.0472 0.01,0.0199 0.0315,0.0315 0.0472,0.0472 0.0157,0.0157 0.0273,0.0373 0.0472,0.0472 0.0141,0.007 0.0361,-0.0111 0.0473,0 0.0111,0.0111 -0.007,0.0332 0,0.0472 0.01,0.0199 0.0373,0.0273 0.0472,0.0472 0.0141,0.0282 -0.0141,0.0663 0,0.0945 0.0199,0.0398 0.0746,0.0547 0.0945,0.0945 0.007,0.0141 -0.007,0.0332 0,0.0473 0.0199,0.0398 0.0746,0.0546 0.0945,0.0945 0.0582,0.11637 -0.13715,-0.0426 0.0472,0.14174 0.0111,0.0111 0.0332,-0.007 0.0472,0 0.19663,0.0983 -0.0505,-0.003 0.0472,0.0945 0.0111,0.0111 0.0361,-0.0111 0.0472,0 0.0111,0.0111 -0.007,0.0332 0,0.0472 0.01,0.0199 0.0373,0.0273 0.0472,0.0473 0.007,0.0141 -0.007,0.0332 0,0.0472 0.01,0.0199 0.0373,0.0273 0.0473,0.0472 0.007,0.0141 0,0.0315 0,0.0473 0.0157,0.0315 0.0277,0.0652 0.0472,0.0945 0.0287,0.043 0.1208,0.0999 0.14174,0.14174 0.007,0.0141 -0.005,0.0323 0,0.0472 0.0111,0.0334 0.0361,0.0611 0.0472,0.0945 0.005,0.0149 -0.007,0.0332 0,0.0473 0.01,0.0199 0.0373,0.0273 0.0473,0.0472 0.007,0.0141 -0.007,0.0332 0,0.0472 0.01,0.0199 0.0373,0.0273 0.0472,0.0473 0.007,0.0141 -0.0111,0.0361 0,0.0472 0.0111,0.0111 0.0361,-0.0111 0.0472,0 0.0111,0.0111 -0.007,0.0332 0,0.0473 0.01,0.0199 0.0373,0.0273 0.0473,0.0472 0.007,0.0141 -0.0111,0.0361 0,0.0472 0.0111,0.0111 0.0361,-0.0111 0.0472,0 0.0111,0.0111 -0.007,0.0332 0,0.0472 0.0199,0.0398 0.0746,0.0546 0.0945,0.0945 0.007,0.0141 -0.007,0.0332 0,0.0472 0.01,0.0199 0.0373,0.0273 0.0472,0.0472 0.007,0.0141 -0.007,0.0332 0,0.0472 0.0478,0.0956 0.10964,0.0152 0.14174,0.0472 0.0111,0.0111 -0.0111,0.0361 0,0.0472 0.0111,0.0111 0.0332,-0.007 0.0472,0 0.0199,0.01 0.0315,0.0315 0.0472,0.0472 0.0157,0.0157 0.0373,0.0273 0.0472,0.0472 0.0141,0.0282 -0.0223,0.0722 0,0.0945 0.0111,0.0111 0.0361,-0.0111 0.0472,0 0.0978,0.0978 -0.14938,-0.004 0.0473,0.0945 0.0282,0.0141 0.0722,-0.0223 0.0945,0 0.0978,0.0978 -0.14938,-0.004 0.0472,0.0945 0.0141,0.007 0.0332,-0.007 0.0472,0 0.0504,0.0252 0.0441,0.0693 0.0945,0.0945 0.0141,0.007 0.0361,-0.0111 0.0472,0 0.0111,0.0111 -0.0111,0.0361 0,0.0473 0.0111,0.0111 0.0361,-0.0111 0.0472,0 0.0111,0.0111 -0.0111,0.0361 0,0.0472 0.0111,0.0111 0.0332,-0.007 0.0472,0 0.0199,0.01 0.0273,0.0373 0.0472,0.0472 0.0141,0.007 0.0323,-0.005 0.0472,0 0.0334,0.0111 0.0611,0.0361 0.0945,0.0473 0.0149,0.005 0.0361,-0.0111 0.0472,0 0.0111,0.0111 -0.0111,0.0361 0,0.0472 0.0111,0.0111 0.0332,-0.007 0.0472,0 0.0199,0.01 0.0273,0.0373 0.0472,0.0472 0.0141,0.007 0.0332,-0.007 0.0472,0 0.0399,0.0199 0.0547,0.0746 0.0945,0.0945 0.0141,0.007 0.0361,-0.0111 0.0473,0 0.0977,0.0977 -0.14939,-0.004 0.0472,0.0945 0.0141,0.007 0.0332,-0.007 0.0472,0 0.0199,0.01 0.0273,0.0373 0.0473,0.0472 0.0282,0.0141 0.0663,-0.0141 0.0945,0 0.0199,0.01 0.0315,0.0315 0.0473,0.0473 0.0157,0.0157 0.0373,0.0273 0.0472,0.0472 0.007,0.0141 -0.0111,0.0361 0,0.0472 0.0111,0.0111 0.0332,-0.007 0.0472,0 0.0504,0.0252 0.0441,0.0693 0.0945,0.0945 0.0141,0.007 0.0332,-0.007 0.0472,0 0.0399,0.0199 0.0547,0.0746 0.0945,0.0945 0.0141,0.007 0.0332,-0.007 0.0472,0 0.0199,0.01 0.0273,0.0373 0.0472,0.0472 0.0282,0.0141 0.0722,-0.0223 0.0945,0 0.0977,0.0978 -0.14939,-0.004 0.0472,0.0945 0.0141,0.007 0.0332,-0.007 0.0472,0 0.0199,0.01 0.0273,0.0373 0.0473,0.0472 0.0141,0.007 0.0361,-0.0111 0.0472,0 0.0978,0.0978 -0.14938,-0.004 0.0472,0.0945 0.0282,0.0141 0.0722,-0.0223 0.0945,0 0.0111,0.0111 -0.0111,0.0361 0,0.0472 0.0111,0.0111 0.0315,0 0.0472,0 0.0157,0 0.0315,0 0.0473,0 0.17324,0 0.34648,0 0.51972,0 0.0157,0 0.0315,0 0.0472,0 0.0157,0 0.0361,-0.0111 0.0472,0 0.0111,0.0111 -0.0111,0.0361 0,0.0472 0.0223,0.0223 0.0722,-0.0223 0.0945,0 0.0111,0.0111 -0.0111,0.0361 0,0.0473 0.0223,0.0223 0.0663,-0.0141 0.0945,0 0.0199,0.01 0.0273,0.0373 0.0472,0.0472 0.0139,0.007 0.28205,0 0.33072,0 0.0157,0 0.0315,0 0.0473,0 0.0157,0 0.0332,-0.007 0.0472,0 0.0199,0.01 0.0273,0.0373 0.0472,0.0472 0.0378,0.0189 0.10395,-0.0189 0.14175,0 0.0199,0.01 0.0273,0.0373 0.0472,0.0472 0.0256,0.0128 0.17606,-0.0129 0.18899,0 0.0111,0.0111 -0.0111,0.0361 0,0.0472 0.0114,0.0114 0.17762,-0.0114 0.18899,0 0.0111,0.0111 -0.0111,0.0361 0,0.0472 0.0114,0.0114 0.17762,-0.0114 0.18899,0 0.0111,0.0111 -0.0111,0.0361 0,0.0472 0.002,0.002 0.13028,0 0.14174,0 0.28348,0 0.56696,0 0.85045,0 0.17323,0 0.34647,0 0.51971,0 0.0121,0 0.13847,-0.007 0.14174,0 0.0763,0.16782 0.126,0.34648 0.18899,0.51972"
       id="path5548"
       inkscape:connector-curvature="0" />
    <text
       xml:space="preserve"
       style="font-style:normal;font-variant:normal;font-weight:normal;font-stretch:normal;font-size:7.05555534px;line-height:100%;font-family:'Asana Math';-inkscape-font-specification:'Asana Math, Normal';font-variant-ligatures:normal;font-variant-caps:normal;font-variant-numeric:normal;font-feature-settings:normal;text-align:start;letter-spacing:0px;word-spacing:0px;writing-mode:lr-tb;text-anchor:start;fill:#000000;fill-opacity:1;stroke:none;stroke-width:0.26458332px;stroke-linecap:butt;stroke-linejoin:miter;stroke-opacity:1"
       x="158.75002"
       y="111.79167"
       id="text3758-0"><tspan
         sodipodi:role="line"
         id="tspan5814"
         x="158.75002"
         y="111.79167">report.md</tspan></text>
    <path
       style="fill:none;fill-opacity:0.75;fill-rule:evenodd;stroke:#000000;stroke-width:0.60000002;stroke-linecap:butt;stroke-linejoin:miter;stroke-miterlimit:4;stroke-dasharray:none;stroke-opacity:1;marker-end:url(#marker5940)"
       d="m 166.68749,114.43751 v 13.22916 h 23.8125"
       id="path5818"
       inkscape:connector-curvature="0" />
    <text
       xml:space="preserve"
       style="font-style:normal;font-variant:normal;font-weight:normal;font-stretch:normal;font-size:4.93888855px;line-height:100%;font-family:'Asana Math';-inkscape-font-specification:'Asana Math';text-align:start;letter-spacing:0px;word-spacing:0px;writing-mode:lr-tb;text-anchor:start;fill:#000000;fill-opacity:1;stroke:none;stroke-width:0.26458332px;stroke-linecap:butt;stroke-linejoin:miter;stroke-opacity:1"
       x="195.79167"
       y="125.02084"
       id="text6022"><tspan
         sodipodi:role="line"
         id="tspan6020"
         x="195.79167"
         y="125.02084"
         style="stroke-width:0.26458332px">PDF,</tspan><tspan
         sodipodi:role="line"
         x="195.79167"
         y="129.95973"
         style="stroke-width:0.26458332px"
         id="tspan6024">HTML,</tspan><tspan
         sodipodi:role="line"
         x="195.79167"
         y="134.89862"
         style="stroke-width:0.26458332px"
         id="tspan6026">DOCX...</tspan></text>
  </g>
</svg>
